<svg height="260pt" preserveAspectRatio="xMidYMid meet" viewBox="0 0 260 260" width="260pt" xmlns="http://www.w3.org/2000/svg"><g transform="matrix(.1 0 0 -.1 0 260)"><path d="m810 2520v-80h-160-160v-80-80h160 160v80 80h165 165v-165-165h-80-80v-80-80h-330-330v80 80h-80-81l3-162 3-163-82 3-83 3v-491-491l82 3 83 3-3-82-3-83h85 86v-160-160h75 75v160 160h85 85v85 85l163-2 162-3 3-162 2-163h75 75l2 163 3 162h165 165l3-162 2-163h75 75l2 163 3 162 163 3 162 2v-85-85h85 85v-160-160h75 75v160 160h85 85v80 80h80 80v491 490l-82-3-83-3 3 163 3 162h-80-81l-2-162-3-163h-80-80l-3 83-3 82h-79-80v80 79l-82 3-83 3v80 80l163 3 162 2v81 80l-162-3-163-3 3 83 3 82h-490-491zm980-650v-80h80 80v-245-245h-80-79l-3-82-3-83h-325-325l-3 83-3 82h-79-80v245 245h80 80v80 80h330 330zm-1140-160v-79l83-3 82-3v-245-245l-82-3-83-3v-79-80h-165-165v80 80h-80-80v250 250h80 80v80 80h165 165zm1790-570v-330h-85-85v80 80h-80-80v165 165h80 80v78c0 43 3 82 7 85 3 4 42 7 85 7h78z"/><path d="m330 2195v-75h75 75v75 75h-75-75z"/><path d="m2120 2195v-75h75 75v75 75h-75-75z"/><path d="m490 240v-80h80 80v-80-80h650 650v80 80h80 80v80 80h-80-80v-80-80h-650-650v80 80h-80-80z"/></g></svg>