<?xml version="1.0" standalone="no"?>
<!DOCTYPE svg PUBLIC "-//W3C//DTD SVG 20010904//EN"
 "http://www.w3.org/TR/2001/REC-SVG-20010904/DTD/svg10.dtd">
<svg version="1.0" xmlns="http://www.w3.org/2000/svg"
 width="260.000000pt" height="260.000000pt" viewBox="0 0 260.000000 260.000000"
 preserveAspectRatio="xMidYMid meet">
<metadata>
Created by potrace 1.11, written by Peter Selinger 2001-2013
</metadata>
<g transform="translate(0.000000,260.000000) scale(0.100000,-0.100000)"
fill="#000000" stroke="none">
<path d="M810 2520 l0 -80 -160 0 -160 0 0 -80 0 -80 160 0 160 0 0 80 0 80
165 0 165 0 0 -165 0 -165 -80 0 -80 0 0 -80 0 -80 -330 0 -330 0 0 80 0 80
-80 0 -81 0 3 -162 3 -163 -82 3 -83 3 0 -491 0 -491 82 3 83 3 -3 -82 -3 -83
85 0 86 0 0 -160 0 -160 75 0 75 0 0 160 0 160 85 0 85 0 0 85 0 85 163 -2
162 -3 3 -162 2 -163 75 0 75 0 2 163 3 162 165 0 165 0 3 -162 2 -163 75 0
75 0 2 163 3 162 163 3 162 2 0 -85 0 -85 85 0 85 0 0 -160 0 -160 75 0 75 0
0 160 0 160 85 0 85 0 0 80 0 80 80 0 80 0 0 491 0 490 -82 -3 -83 -3 3 163 3
162 -80 0 -81 0 -2 -162 -3 -163 -80 0 -80 0 -3 83 -3 82 -79 0 -80 0 0 80 0
79 -82 3 -83 3 0 80 0 80 163 3 162 2 0 81 0 80 -162 -3 -163 -3 3 83 3 82
-490 0 -491 0 0 -80z m980 -650 l0 -80 80 0 80 0 0 -245 0 -245 -80 0 -79 0
-3 -82 -3 -83 -325 0 -325 0 -3 83 -3 82 -79 0 -80 0 0 245 0 245 80 0 80 0 0
80 0 80 330 0 330 0 0 -80z m-1140 -160 l0 -79 83 -3 82 -3 0 -245 0 -245 -82
-3 -83 -3 0 -79 0 -80 -165 0 -165 0 0 80 0 80 -80 0 -80 0 0 250 0 250 80 0
80 0 0 80 0 80 165 0 165 0 0 -80z m1790 -570 l0 -330 -85 0 -85 0 0 80 0 80
-80 0 -80 0 0 165 0 165 80 0 80 0 0 78 c0 43 3 82 7 85 3 4 42 7 85 7 l78 0
0 -330z"/>
<path d="M330 2195 l0 -75 75 0 75 0 0 75 0 75 -75 0 -75 0 0 -75z"/>
<path d="M2120 2195 l0 -75 75 0 75 0 0 75 0 75 -75 0 -75 0 0 -75z"/>
<path d="M490 240 l0 -80 80 0 80 0 0 -80 0 -80 650 0 650 0 0 80 0 80 80 0
80 0 0 80 0 80 -80 0 -80 0 0 -80 0 -80 -650 0 -650 0 0 80 0 80 -80 0 -80 0
0 -80z"/>
</g>
</svg>
