<svg fill="none" height="48" viewBox="0 0 48 48" width="48" xmlns="http://www.w3.org/2000/svg"><path d="m0 0h48v48h-48z" fill="#eee"/><path d="m33 33v-2c0-1.38-.561-2.632-1.464-3.536s-2.156-1.464-3.536-1.464h-8c-1.38 0-2.632.561-3.536 1.464s-1.464 2.156-1.464 3.536v2c0 .552.448 1 1 1s1-.448 1-1v-2c0-.829.335-1.577.879-2.121s1.292-.879 2.121-.879h8c.829 0 1.577.335 2.121.879s.879 1.292.879 2.121v2c0 .552.448 1 1 1s1-.448 1-1zm-4-14c0-1.38-.561-2.632-1.464-3.536s-2.156-1.464-3.536-1.464-2.632.561-3.536 1.464-1.464 2.156-1.464 3.536.561 2.632 1.464 3.536 2.156 1.464 3.536 1.464 2.632-.561 3.536-1.464 1.464-2.156 1.464-3.536zm-2 0c0 .829-.335 1.577-.879 2.121s-1.292.879-2.121.879-1.577-.335-2.121-.879-.879-1.292-.879-2.121.335-1.577.879-2.121 1.292-.879 2.121-.879 1.577.335 2.121.879.879 1.292.879 2.121z" fill="#aaa"/></svg>
