<svg fill="none" height="16" viewBox="0 0 16 16" width="16" xmlns="http://www.w3.org/2000/svg"><g fill="#000"><path d="m4 15h8v1h-8z"/><path d="m4 10h8v1h-2v2h-1v-2h-2v2h-1v-2h-2z"/><path d="m5 0h6v1h-6z"/><path d="m3 1h2v1h-2z"/><path d="m11 1h2v1h-2z"/><path d="m13 2h1v1h-1z"/><path d="m2 2h1v1h-1z"/><path d="m1 3h1v2h-1z"/><path d="m14 3h1v2h-1z"/><path d="m15 5h1v6h-1z"/><path d="m4 11h-3v1h1v2h1v-2h1z"/><path d="m15 11h-3v1h1v2h1v-2h1z"/><path d="m0 5h1v6h-1z"/><path d="m3 14h1v1h-1z"/><path d="m12 14h1v1h-1z"/></g><path d="m6 11h-2v1h-1v2h1v1h8v-1h1v-2h-1v-1h-2v2h-1v-2h-2v2h-1z" fill="#fff"/><path d="m1 11v-6h1v-2h1v-1h2v-1h6v1h2v1h1v2h1v6h-3v-1h-8v1z" fill="#f00"/><path d="m7 4h4v1h1v3h-1v1h-4v-1h-1v-3h1z" fill="#fff"/><path d="m5 1h2v2h-1v1h-4v-1h1v-1h2z" fill="#fff"/><path d="m15 7h-1v1h-1v2h1v1h1z" fill="#fff"/><path d="m11 2v1h1v1h1v1h1v-2h-1v-1z" fill="#fff"/><path d="m2 5h2v1h1v3h-1v1h-2v-1h-1v-3h1z" fill="#fff"/></svg>
